/* XPM */
static char *char[] = {
/* columns rows colors chars-per-pixel */
"32 32 196 2 ",
"   c #020202",
".  c #07070A",
"X  c #0A0A0C",
"o  c #0D0E14",
"O  c #0F121E",
"+  c #101117",
"@  c #15171E",
"#  c #0F1428",
"$  c #111626",
"%  c #151824",
"&  c #191B24",
"*  c #11162B",
"=  c #13192C",
"-  c #141C34",
";  c #111739",
":  c #151D3B",
">  c #331B27",
",  c #261C35",
"<  c #1F2028",
"1  c #1C2233",
"2  c #17203B",
"3  c #19223C",
"4  c #232634",
"5  c #27273A",
"6  c #292B3D",
"7  c #34333E",
"8  c #44253E",
"9  c #5F2E30",
"0  c #772020",
"q  c #673034",
"w  c #753035",
"e  c #161E42",
"r  c #151D48",
"t  c #172044",
"y  c #1A2443",
"u  c #1E2946",
"i  c #172048",
"p  c #1B264B",
"a  c #1D294C",
"s  c #1B2653",
"d  c #1E2A53",
"f  c #1A255C",
"g  c #1E2B5D",
"h  c #232944",
"j  c #2C2D43",
"k  c #222B4B",
"l  c #252848",
"z  c #2D3144",
"x  c #2F334C",
"c  c #333445",
"v  c #393742",
"b  c #3D3B45",
"n  c #333549",
"m  c #383748",
"M  c #35394C",
"N  c #3C3B4B",
"B  c #212D53",
"V  c #2B2C52",
"C  c #202E59",
"Z  c #243056",
"A  c #2A3457",
"S  c #23325C",
"D  c #28355E",
"F  c #373B53",
"G  c #363A58",
"H  c #142161",
"J  c #1D2A62",
"K  c #1B2B70",
"L  c #202E63",
"P  c #202F6E",
"I  c #243364",
"U  c #293A67",
"Y  c #23336A",
"T  c #283668",
"R  c #27396C",
"E  c #2B3C6C",
"W  c #313D67",
"Q  c #273874",
"!  c #283B7F",
"~  c #412F47",
"^  c #433C48",
"/  c #403F59",
"(  c #643A43",
")  c #3C4159",
"_  c #2E4172",
"`  c #2F447B",
"'  c #31467E",
"]  c #44434D",
"[  c #5C414B",
"{  c #424355",
"}  c #4B4553",
"|  c #4D4956",
" . c #42465D",
".. c #4B465A",
"X. c #4D4B5B",
"o. c #514D5C",
"O. c #624550",
"+. c #7D535E",
"@. c #444964",
"#. c #484A64",
"$. c #544D63",
"%. c #565363",
"&. c #5A5564",
"*. c #5E5966",
"=. c #57576C",
"-. c #5C556C",
";. c #57586B",
":. c #464C74",
">. c #4C5370",
",. c #5C5B73",
"<. c #545A79",
"1. c #655765",
"2. c #645E6D",
"3. c #795864",
"4. c #645B73",
"5. c #685F78",
"6. c #5B607E",
"7. c #66616E",
"8. c #69646E",
"9. c #7C626D",
"0. c #666173",
"q. c #6B6474",
"w. c #6E6875",
"e. c #6E667B",
"r. c #766A78",
"t. c #736B7C",
"y. c #78707F",
"u. c #972F2F",
"i. c #AF3C3C",
"p. c #B23C3A",
"a. c #873E42",
"s. c #934D53",
"d. c #9A565C",
"f. c #BC5354",
"g. c #835E6D",
"h. c #916A73",
"j. c #A36369",
"k. c #364C87",
"l. c #344B92",
"z. c #5C6384",
"x. c #6A6883",
"c. c #766C83",
"v. c #7C6E85",
"b. c #7C7285",
"n. c #77748A",
"m. c #7C7389",
"M. c #5D7AB8",
"N. c #717AA4",
"B. c #5E7EC5",
"V. c #826D82",
"C. c #837789",
"Z. c #847C8B",
"A. c #957D85",
"S. c #857A92",
"D. c #877F98",
"F. c #7C819D",
"G. c #7183B2",
"H. c #718EC0",
"J. c #88818C",
"K. c #8B8293",
"L. c #81819E",
"P. c #8E8499",
"I. c #938495",
"U. c #988D9F",
"Y. c #97909C",
"T. c #9A929F",
"R. c #8A8BA9",
"E. c #968AA1",
"W. c #948AA6",
"Q. c #9A8EA5",
"!. c #9D94A2",
"~. c #9991AA",
"^. c #818CB7",
"/. c #8791BA",
"(. c #A498A6",
"). c #A296AB",
"_. c #A59DAB",
"`. c #A49BB5",
"'. c #ABA6AE",
"]. c #B2A4B5",
"[. c #B3AAB7",
"{. c #B8A6BA",
"}. c #B6ABBB",
"|. c #B9AFBE",
" X c #9DA5D0",
".X c #BFB3C5",
"XX c #C5B7CB",
"oX c #C5B9C9",
"OX c #CBBCD1",
"+X c #BDC5E5",
"@X c #C8C1CA",
"#X c #CEC0D5",
"$X c #D1C5D6",
"%X c #D7C9DC",
"&X c #CED4ED",
"*X c #E7DBEA",
/* pixels */
"y y 3 3 3 : Z _ g R T I Y L S d 2 - 2 a d a d I U ` d y 2 y 2 2 ",
"- 2 $ * - d ' Z ..0.q.,.:.I C B 1 3 3 p y a u 3 u S d a u 2 2 2 ",
"- 2 % * = k #.e.P.'.|.[.'.J.7.M = 3 C a a d a 2 2 p d _ U 2 3 y ",
"3 - * * = o.c.P.).K.y.Z.W.`.~.;.4 3 Z S a a I S a a a U ' a d d ",
"a e * * o.c.D.m... .z.G. X&X&XF.v 8.%.3 u a _ R d y p p S a 3 y ",
"p D p c e.C.q.{ ) >.z.N.G.&X+X/.@.w.T.n d a C a u a y p 3 2 2 2 ",
"a E B -.c.&.{ #.>.>.>.@. .F.^.N.6.| Y.%.C C C : a U t : 2 2 2 2 ",
"e k j e.e.$.<.>.@.F z 6 6 c 6.z.<.7 w.%.a R ` a y u t : : t 2 2 ",
"V d F e.K.| =.) j 6 j 6 j 4 6 ) F z X.{ s a g p y 2 t i t : e a ",
"B d j &.`.w.c z j 6 j 5 + .   1 x M b k : : t t a y d g d C d a ",
"- ; m 2.S.~.v ,.x 4 % o       @ n n m D : : p i a a d Y K J d : ",
"i : } v.4.D.1.#.< X           + M n m p , , n m a k B <.H.k.s i ",
"d d &.q.$.-.n.j 6 @ o .   . . @ z N | &.q u.h.@X'.J.Z.!.~.n.d d ",
"d g G ..$.$.D.x.n.X.6 & @ @ & 4 N o.8.[.(.i.f.oX*X|.$XoXK.w.i a ",
"e s J Q G $.D.D. XR.6.) M n n ..-.5.*.oX$Xs.p.(.%X|..X0.u S d : ",
"e e H l.B.Q c.D.R.L.x.,.=.=.-.&.4.U.Y.t..Xs.0 y.).Y.'.%.I R I t ",
"i r f P Q P I q.v.c.4.4.&.5.c.&.] %X$X&.P./ V W { &.Z._.W C C B ",
"t s f J L L / 4.t.c.2.v.m.x.} N ;.(.'.*.c C k.V : C G %.A I B B ",
"; p L L f G 5.~.D.^ -.b.^ b &.;.Z.2.Z.y._.'...- - k a a S a y y ",
"; r I Y L ( j.A.].m...Q.v.^ ,.q.9._.#X!.%X*XA.> $ y C p y 3 : - ",
"t t i a 8 a.j.d.s.A.} m.Q.%.o.v.[.OX).Z.XXXXg.9 < 2 y t : 3 y 3 ",
"e ; r B 1.{.*X{.+.g.&.} v.e.c.2.Q.).2.t.W.v.w A.] 2 2 3 - : y 3 ",
": ; d S Q.$XOX).r.~ l 6 &.C.e.v &.4.N 5 ~ ( h.!.) % 1 u 2 2 1 h ",
"; ; k A P.!.[.|.r.l r 5 V.E.E.Z.} h 3 - 5 | 2.v.7.3 2 2 2 - = $ ",
"* - y B 4.].%X*XK.) 3 j [ C.I.g.x d y 2 3 3 4 ) 7 u = 2 2 1 # $ ",
"; : r B ^ U.oXOX|.m.p k 1.3.O.l u a - - 3 2 % 2 u 1 $ 2 - = O * ",
"3 : k C | I.T.Z.E.'.p J -.!.0.e - = - 2 - 2 2 2 3 2 * = = < = O ",
": : k a ] P.}.w.7.J.s ! G.' V p 2 - = - y u u 2 3 3 = - - 3 3 $ ",
": y : : 3 &.S.J.z d f k.M.k.H d a y - 2 a a y 2 3 3 - 2 2 3 k 1 ",
"* e y e j m.Z.o.g d s f H J p d a a u y y a d u a a u u 2 = 3 - ",
"* e t I E G X.h s d g g J Y d : 2 2 p C S B a a S U B u 3 3 2 = ",
"; y a k.k.d t a a I Y I Y Y Y y - - 2 I _ a C B S _ Z 3 3 2 - = "
};
