/* XPM */
static char *char[] = {
/* columns rows colors chars-per-pixel */
"16 16 9 1 ",
"  c black",
". c #080E17",
"X c #36577D",
"o c #BE2633",
"O c #F7E26B",
"+ c #31A2F2",
"@ c #FFDBAC",
"# c white",
"$ c None",
/* pixels */
"$$$$$$$$$$$$$$$$",
"$$$$$$    $$$$$$",
"$$$$$ @@## $$$$$",
"$$$$$ @@#  $$$$$",
"$$$$$ @@@@ $$$$$",
"$$$$$$ @@ $$$$$$",
"$$$$$ ++++ $$$$$",
"$$$$$ XX+O $$$$$",
"$$$$..XX++ $$$$$",
"$$$.@@.+++  $$$$",
"$$$.@@.++O @ $$$",
"$$$$.. +++ @ $$$",
"$$$$        $$$$",
"$$$$ o   oo $$$$",
"$$$$ oo$$oo $$$$",
"$$$$$  $$  $$$$$"
};
