/* XPM */
static char *collect[] = {
/* columns rows colors chars-per-pixel */
"67 50 227 2 ",
"   c #000000",
".  c #01040C",
"X  c #0E0100",
"o  c #160200",
"O  c #000611",
"+  c #010A15",
"@  c #020D1B",
"#  c #080E19",
"$  c #02121D",
"%  c #001E1E",
"&  c #18171A",
"*  c #260200",
"=  c #330700",
"-  c #011523",
";  c #031925",
":  c #091B26",
">  c #031C2A",
",  c #0A1C2A",
"<  c #071627",
"1  c #161A27",
"2  c #011C31",
"3  c #0E1C34",
"4  c #000A22",
"5  c #04212D",
"6  c #0B222E",
"7  c #032133",
"8  c #0A2232",
"9  c #02243A",
"0  c #022B3B",
"q  c #002A33",
"w  c #122635",
"e  c #132A37",
"r  c #182A39",
"t  c #00303F",
"y  c #1B303D",
"u  c #232B3A",
"i  c #2F2624",
"p  c #460300",
"a  c #510200",
"s  c #500A00",
"d  c #551304",
"f  c #461705",
"g  c #6A2909",
"h  c #553929",
"j  c #4B3525",
"k  c #673123",
"l  c #784F3B",
"z  c #003144",
"x  c #03374A",
"c  c #173747",
"v  c #013953",
"b  c #083E59",
"n  c #0B324D",
"m  c #213244",
"M  c #2D2E42",
"N  c #02465B",
"B  c #294B54",
"V  c #004A65",
"C  c #00536A",
"Z  c #07546A",
"A  c #004E70",
"S  c #015D76",
"D  c #045B78",
"F  c #165C77",
"G  c #154F66",
"H  c #28596B",
"J  c #305766",
"K  c #2A5871",
"L  c #01647C",
"P  c #056477",
"I  c #1C647C",
"U  c #186579",
"Y  c #2D687D",
"T  c #336A7D",
"R  c #366278",
"E  c #316973",
"W  c #476878",
"Q  c #55777C",
"!  c #696A66",
"~  c #871500",
"^  c #9F1A00",
"/  c #A51A00",
"(  c #9B3505",
")  c #9C2600",
"_  c #BA3602",
"`  c #B73902",
"'  c #A83101",
"]  c #944E10",
"[  c #B24F10",
"{  c #BA6019",
"}  c #804521",
"|  c #CF5004",
" . c #DD6604",
".. c #E4660E",
"X. c #EF6822",
"o. c #92786F",
"O. c #CA785B",
"+. c #6D857C",
"@. c #DE973F",
"#. c #FC8922",
"$. c #F2BC35",
"%. c #B2884F",
"&. c #878B73",
"*. c #AE9376",
"=. c #C08F5E",
"-. c #C99B52",
";. c #E89D4F",
":. c #CFA258",
">. c #E9AA4B",
",. c #EBB157",
"<. c #D7B26D",
"1. c #CEA57D",
"2. c #FBBD6B",
"3. c #FCC347",
"4. c #FFC357",
"5. c #F9CC78",
"6. c #006581",
"7. c #036D8D",
"8. c #006C87",
"9. c #196D85",
"0. c #00728A",
"q. c #007385",
"w. c #137887",
"e. c #027B9B",
"r. c #057A99",
"t. c #197896",
"y. c #266E84",
"u. c #387787",
"i. c #237A93",
"p. c #28789A",
"a. c #387B95",
"s. c #2C7D85",
"d. c #1E7DA3",
"f. c #227FA0",
"g. c #4A778B",
"h. c #008397",
"j. c #15839B",
"k. c #00909E",
"l. c #2B849A",
"z. c #36839F",
"x. c #2F9196",
"c. c #0088A2",
"v. c #1986A4",
"b. c #0C95B0",
"n. c #2687A5",
"m. c #338CAD",
"M. c #3A8AA5",
"N. c #3A90A4",
"B. c #3797AB",
"V. c #2A9AB9",
"C. c #3B93B2",
"Z. c #3894B7",
"A. c #328EAC",
"S. c #00A9BB",
"D. c #30A5BA",
"F. c #46899B",
"G. c #57879A",
"H. c #439299",
"J. c #6B878F",
"K. c #438EA4",
"L. c #478DA9",
"P. c #4391A1",
"I. c #4993AC",
"U. c #4695A9",
"Y. c #5295AB",
"T. c #549AAD",
"R. c #5A95A8",
"E. c #4294B4",
"W. c #4B9BB9",
"Q. c #4698B8",
"!. c #549CB5",
"~. c #539DBB",
"^. c #5994B1",
"/. c #6396A6",
"(. c #749BA8",
"). c #6C9CB2",
"_. c #59A5AE",
"`. c #5AA8B9",
"'. c #4FA5B8",
"]. c #6CA4AA",
"[. c #66A6B8",
"{. c #77A3B5",
"}. c #7DB4BD",
"|. c #7DA5AA",
" X c #00AEC0",
".X c #00B2C2",
"XX c #1AB1CA",
"oX c #32A9C7",
"OX c #2FB4C7",
"+X c #4F9EC3",
"@X c #52B3C6",
"#X c #47B0CE",
"$X c #69ABC4",
"%X c #68B6C8",
"&X c #7AB3C7",
"*X c #72B3D5",
"=X c #3ACBE0",
"-X c #67C4DA",
";X c #72C3D0",
":X c #4CD0EF",
">X c #74C9ED",
",X c #76D2F0",
"<X c #90978B",
"1X c #849CA6",
"2X c #83A8AB",
"3X c #86A7B5",
"4X c #9BB6BA",
"5X c #ACBFAA",
"6X c #D1A982",
"7X c #EAB988",
"8X c #FBD08B",
"9X c #FFE489",
"0X c #DBCBBA",
"qX c #CFC2B8",
"wX c #F6CFA7",
"eX c #FFE7A3",
"rX c #87BDD6",
"tX c #8CB6C7",
"yX c #98C8DA",
"uX c #93D3DB",
"iX c #B3C9C7",
"pX c #96D3F0",
"aX c #ADDEF3",
"sX c #99EBFE",
"dX c #FBF5D7",
"fX c #CDF9FE",
"gX c None",
/* pixels */
"gXgXgXgXgXgXgXgXgXgXgXgXgXgXgXgXgXgXgXgXgXgXgXgXgXgXgXgXgXgXgXgXgXgXgXgXgXgXgXgXgXgXgXgXgXgXgXgXgXgXgXgXgXgXgXgXgXgXgXgXgXgXgXgXgXgXgX",
"gXgXgXgXgXgXgXgXgXgXgXgXgXgXgXgXgXgXgXgXgXgXgXgXgXgXgXgXgXgXgXgXgXgXgXgXgXgXgXgXgXgXgXgXgXgXgXgXgXgXgXgXgXgXgXgXgXgXgXgXgXgXgXgXgXgXgX",
"gXgXgXgXgXgXgXgXgXgXgXgXgXgXgXgXgXgXgXgXgXgXgXgXgXgXgXgXgXgXgXgXgXgXgXgXgXgXgXgXgXgXgXgXgXgXgXgXgXgXgXgXgXgXgXgXgXgXgXgXgXgXgXgXgXgXgX",
"gXgXgXgXgXgXgXgXgXgXgXgXgXgXgXgXgXgXgXgXgXgXgXgXgXgXgXgXgXgXgXgXgXgXgXgXgXgXgXgXgXgXgXgXgXgXgXgXgXgXgXgXgXgXgXgXgXgXgXgXgXgXgXgXgXgXgX",
"gXgXgXgXgXgXgXgXgXgXgXgXgXgXgXgXgXgXgXgXgXgXgXgXgXgXgXgXgXgXgXgXgXgXgXgXgXgXgXgXgXgXgXgXgXgXgXgXgXgXgXgXgXgXgXgXgXgXgXgXgXgXgXgXgXgXgX",
"gXgXgXgXgXgXgXgXgXgXgXgXgXgXgXgXgXgXgXgXgXgXgXgXgXgXgXgXgXgXgXgXgXgXgXgXgXgXgXgXgXgXgXgXgXgXgXgXgXgXgXgXgXgXgXgXgXgXgXgXgXgXgXgXgXgXgX",
"gXgXgXgXgXgXgXgXgXgXgXgXgXgXgXgXgXgXgXgXgXgXgXgXgXgXgXgXgXgXgXgXgXgXgXgXgXgXgXgXgXgXgXgXgXgXgXgXgXgXgXgXgXgXgXgXgXgXgXgXgXgXgXgXgXgXgX",
"gXgXgXgXgXgXgXgXgXgXgXgXgXgXgXgXgXgXgXgXgXgXgXgXgXgXgXgXgXgXgXgXgXgXgXgXgXgXgXgXgXgXgXgXgXgXgXgXgXgXgXgXgXgXgXgXgXgXgXgXgXgXgXgXgXgXgX",
"gXgXgXgXgXgXgXgXgXgXgXgXgXgXgXgXgXgXgXgXgXgXgXgXgXgXgXgXgXgXgXgXgXgXgXgXgXgXgXgXgXgXgXgXgXgXgXgXgXgXgXgXgXgXgXgXgXgXgXgXgXgXgXgXgXgXgX",
"gXgXgXgXgXgXgXgXgXgXgXgXgXgXgXgXgXgXgXgXgXgXgXgXgXgXgXgXgXgXgXgXgXgXgXgXgXgXgXgXgXgXgXgXgXgXgXgXgXgXgXgXgXgXgXgXgXgXgXgXgXgXgXgXgXgXgX",
"gXgXgXgXgXgXgXgXgXgXgXgXgXgXgXgXgXgXgXgXgXgXgXgXgXgXgXgXgXgXgXgXgXgXgXgXgXgXgXgXgXgXgXgXgXgXgXgXgXgXgXgXgXgXgXgXgXgXgXgXgXgXgXgXgXgXgX",
"gXgXgXgXgXgXgXgXgXgXgXgXgXgXgXgXgXgXgXgXgXgXgXgXgXgXgXgXgXgXgXgXgXgXgXgXgXgXgXgXgXgXgXgXgXgXgXgXgXgXgXgXgXgXgXgXgXgXgXgXgXgXgXgXgXgXgX",
"gXgXgXgXgXgXgXgXgXgXgXgXgXgXgXgXgXgXgXgXgXgXgXgXgXgXgXgXgXgXgXgXgXgXgXgXgXgXgXgXgXgXgXgXgXgXgXgXgXgXgXgXgXgXgXgXgXgXgXgXgXgXgXgXgXgXgX",
"gXgXgXgXgXgXgXgXgXgXgXgXgXgXgXgXgXgXgXgXgXgXgXgXgXgXgXgXgXgXgXgXgXgXgXgXgXgXgXgXgXgXgXgXgXgXgXgXgXgXgXgXgXgXgXgXgXgXgXgXgXgXgXgXgXgXgX",
"gXgXgXgXgXgXgXgXgXgXgXgXgXgXgXgXgXgXgXgXgXgXgXgXgXgXgXgXgXgXgXgXgXgXgXgXgXgXgXgXgXgXgXgXgXgXgXgXgXgXgXgXgXgXgXgXgXgXgXgXgXgXgXgXgXgXgX",
"gXgXgXgXgXgXgXgXgXgXgXgXgXgXgXgXgXgXgXgXgXgXgXgXgXgXgXgXgXgXgXgXgXgXgXgXgXgXgXgXgXgXgXgXgXgXgXgXgXgXgXgXgXgXgXgXgXgXgXgXgXgXgXgXgXgXgX",
"gXgXgXgXgXgXgXgXgXgXgXgXgXgXgXgXgXgXgXgXgXgXgXgXgXgXgXgXgXgXgXgXgXgXgX      gXgXgXgXgXgXgXgXgXgXgXgXgXgXgXgXgXgXgXgXgXgXgXgXgXgXgXgXgX",
"gXgXgXgXgXgXgXgXgXgXgXgXgXgXgXgXgXgXgXgXgXgXgXgXgXgXgXgXgXgXgXgXgX      A.        gXgXgXgXgXgXgXgXgXgXgXgXgXgXgXgXgXgXgXgXgXgXgXgXgXgX",
"gXgXgXgXgXgXgXgXgXgXgXgXgXgXgXgXgXgXgXgXgXgXgXgXgXgXgXgXgXgXgX      #XH.+ E S.S.          gXgXgXgXgXgXgXgXgXgXgXgXgXgXgXgXgXgXgXgXgXgX",
"gXgXgXgXgXgXgXgXgXgXgXgXgXgXgXgXgXgXgXgXgXgXgXgXgXgXgXgXgX      #XN $ N.U.j.h.A.P.9 .X.X            gXgXgXgXgXgXgXgXgXgXgXgXgXgXgXgXgX",
"gXgXgXgXgXgXgXgXgXgXgXgXgXgXgXgXgXgXgXgXgXgXgXgXgXgXgX      OXN 7 ;X].iXiXo.6XwXT [.U.x.. S.S.D.c.      gXgXgXgXgXgXgXgXgXgXgXgXgXgXgX",
"gXgXgXgXgXgXgXgXgXgXgXgXgXgXgXgXgXgXgXgXgXgXgXgX        XX8 z 3X0Xb.b.5XV.G.6X*.h.Z v.P J.s._.F.% z h.            gXgXgXgXgXgXgXgXgXgX",
"gXgXgXgXgXgXgXgXgXgXgXgXgXgXgXgXgXgXgXgXgXgX      :X=X> s.D *X6X1.*.+.E +.<.2.8Xy.c.2XD.x.%.-.l h *.).&XI '.H 2   gXgXgXgXgXgXgXgXgXgX",
"gXgXgXgXgXgXgXgXgXgXgXgXgXgXgXgXgXgXgXgXgXgX  T ^.7.< oXV.+XE.<X<.5.H.P /.tX3X2X|.<.,.>.-.%.%.O.$XT.I.L.W , > 7   gXgXgXgXgXgXgXgXgXgX",
"gXgXgXgXgXgXgXgXgXgXgXgXgXgXgXgXgXgXgXgXgXgX  W E a.4 Y &XyX$X!._.x.q.h.[.].{.1X4X&.3.$.>.&.[.F.[.Y.n > 7 , c <   gXgXgXgXgXgXgXgXgXgX",
"gXgXgXgXgXgXgXgXgXgXgXgXgXgXgXgXgXgXgXgXgXgX    $ L.> t.n.A.n.W.7X} uX{.k.OX.X@X%XD.x.1XT.3XG.R.> , 6 8 8 - : w   gXgXgXgXgXgXgXgXgXgX",
"gXgXgXgXgXgXgXgXgXgXgXgXgXgXgXgXgXgXgXgXgXgXgX  K aXU 6.6.h.E.j ] ;.o h ;X;X%X#X%X(._.(._._.> 6 2 8 8 ; 6 6 . #   gXgXgXgXgXgXgXgXgXgX",
"gXgXgXgXgXgXgXgXgXgXgXgXgXgXgXgXgXgXgXgXgXgXgX  }.Y G u.Z.A.N.X g %.f & i.L B.@X%X].uX%Xq 8 7 6 , , 5 ; 1 . u     gXgXgXgXgXgXgXgXgXgX",
"gXgXgXgXgXgXgXgXgXgXgXgXgXgXgXgXgXgXgXgXgXgXgX  . 2 ; x C.N.@ T.] d O.H j.j.r.E.R g.yX, , 8 , 6 > < : O @ : y   gXgXgXgXgXgXgXgXgXgXgX",
"gXgXgXgXgXgXgXgXgXgXgXgXgXgXgXgXgXgXgXgXgXgXgX  Z.v.7 V Y.M.L P k O.X x.B.l.V k.R G./.8 : , , , : @ ; $ O ; m   gXgXgXgXgXgXgXgXgXgXgX",
"gXgXgXgXgXgXgXgXgXgXgXgXgXgXgXgXgXgXgXgXgXgXgX  +Xm.2 t.v.'.[.] 2.` * Z w.I C a.(.B R z < , . @ ; - $ : 8 ; m   gXgXgXgXgXgXgXgXgXgXgX",
"gXgXgXgXgXgXgXgXgXgXgXgXgXgXgXgXgXgXgXgXgXgXgX  Z.+X9 I.L.M.;.dXeX| ( o N N.E.l.W B Q J.. ; O . ; + ; r < - m   gXgXgXgXgXgXgXgXgXgXgX",
"gXgXgXgXgXgXgXgXgXgXgXgXgXgXgXgXgXgXgXgXgXgXgX  +X+X> !.H.] [ 5.eX4.( ~ % i.N.I.a.X a.n 1 O ; $ O - O w 2 , y   gXgXgXgXgXgXgXgXgXgXgX",
"gXgXgXgXgXgXgXgXgXgXgXgXgXgXgXgXgXgXgXgXgXgXgX  ~.W.> N H.{ 2.5.9XX.) a o 9.Y.L.rXr.D O ; @ : : 6 . e , 4 > r   gXgXgXgXgXgXgXgXgXgXgX",
"gXgXgXgXgXgXgXgXgXgXgXgXgXgXgXgXgXgXgXgXgXgXgX  !.I.; N.g. .9X2. .X.| _ o C P tXyXn.t.z 8 @ $ ; 5 ; > , : > r   gXgXgXgXgXgXgXgXgXgXgX",
"gXgXgXgXgXgXgXgXgXgXgXgXgXgXgXgXgXgXgXgXgXgXgX  ^.I.- E.B k #._ ^ ^ _ ~ = C D [.L.Z.n.v 9 $ , 5 ; w - - 2 > r   gXgXgXgXgXgXgXgXgXgXgX",
"gXgXgXgXgXgXgXgXgXgXgXgXgXgXgXgXgXgXgXgXgXgXgX  Y.K.- u.p.W [ ~ _ ' = d = U L.M.U Q.n.b 9 ; , 6 6 + - - > - 1   gXgXgXgXgXgXgXgXgXgXgX",
"gXgXgXgXgXgXgXgXgXgXgXgXgXgXgXgXgXgXgXgXgXgXgX  K.T 4 V W.g.a [ ` ~ a s i t.l.M.a.E.j.V 0 > ; e ; $ O > ; $ ;   gXgXgXgXgXgXgXgXgXgXgX",
"gXgXgXgXgXgXgXgXgXgXgXgXgXgXgXgXgXgXgXgXgXgXgX  K.a.> 9.n.a.y.| _ ~ s O m {.K.L.E.~.j.V 9 2 ; 8 + > ; . ; - :     gXgXgXgXgXgXgXgXgXgX",
"gXgXgXgXgXgXgXgXgXgXgXgXgXgXgXgXgXgXgXgXgXgXgX  3 p.z v p.W.l.c a * ! g.g.g.0XqXJ !.j.D 9 ; > : : ; > 6 5   + J   gXgXgXgXgXgXgXgXgXgX",
"gXgXgXgXgXgXgXgXgXgXgXgXgXgXgXgXgXgXgXgXgXgX    pXrXu.. e.d.L L r.Y ^.x 3XG.M g.W !.m.F 7 ; 2 > < > : . r ,   :   gXgXgXgXgXgXgXgXgXgX",
"gXgXgXgXgXgXgXgXgXgXgXgXgXgXgXgXgXgXgXgXgXgX  T Y b x a.>X>X- 7.e.7.C.7.u./.H.g.J L.C.D 5 $   , < . e $ 5 >       gXgXgXgXgXgXgXgXgXgX",
"gXgXgXgXgXgXgXgXgXgXgXgXgXgXgXgXgXgXgXgXgXgX      V F 9.p.Q.b -X>X,Xv v e.d.e.7.0 j.L D 5 . $ - 6 - 8 ;       gXgXgXgXgXgXgXgXgXgXgXgX",
"gXgXgXgXgXgXgXgXgXgXgXgXgXgXgXgXgXgXgXgXgXgXgXgX              f.i.j.8.C.sXsXz : t.m.A D ; # ; 6 5 ,       gXgXgXgXgXgXgXgXgXgXgXgXgXgX",
"gXgXgXgXgXgXgXgXgXgXgXgXgXgXgXgXgXgXgXgXgXgXgXgXgXgXgXgXgXgX          t.t.n.c.0.pXfXR.v ; w , ,       gXgXgXgXgXgXgXgXgXgXgXgXgXgXgXgX",
"gXgXgXgXgXgXgXgXgXgXgXgXgXgXgXgXgXgXgXgXgXgXgXgXgXgXgXgXgXgXgXgXgXgX          t.%X0.0.S - >       gXgXgXgXgXgXgXgXgXgXgXgXgXgXgXgXgXgX",
"gXgXgXgXgXgXgXgXgXgXgXgXgXgXgXgXgXgXgXgXgXgXgXgXgXgXgXgXgXgXgXgXgXgXgXgXgXgX        8.G       gXgXgXgXgXgXgXgXgXgXgXgXgXgXgXgXgXgXgXgX",
"gXgXgXgXgXgXgXgXgXgXgXgXgXgXgXgXgXgXgXgXgXgXgXgXgXgXgXgXgXgXgXgXgXgXgXgXgXgXgXgXgX        gXgXgXgXgXgXgXgXgXgXgXgXgXgXgXgXgXgXgXgXgXgX",
"gXgXgXgXgXgXgXgXgXgXgXgXgXgXgXgXgXgXgXgXgXgXgXgXgXgXgXgXgXgXgXgXgXgXgXgXgXgXgXgXgXgXgXgXgXgXgXgXgXgXgXgXgXgXgXgXgXgXgXgXgXgXgXgXgXgXgX",
"gXgXgXgXgXgXgXgXgXgXgXgXgXgXgXgXgXgXgXgXgXgXgXgXgXgXgXgXgXgXgXgXgXgXgXgXgXgXgXgXgXgXgXgXgXgXgXgXgXgXgXgXgXgXgXgXgXgXgXgXgXgXgXgXgXgXgX"
};
