/* XPM */
static char *collect[] = {
/* columns rows colors chars-per-pixel */
"32 32 212 2 ",
"   c #372F1D",
".  c #0F132B",
"X  c #11162C",
"o  c #161B28",
"O  c #13192C",
"+  c #111633",
"@  c #141B35",
"#  c #111739",
"$  c #151C3B",
"%  c #182036",
"&  c #17203A",
"*  c #19223D",
"=  c #24242C",
"-  c #252A37",
";  c #2D323D",
":  c #393635",
">  c #433F2F",
",  c #524D15",
"<  c #605B10",
"1  c #696505",
"2  c #69670E",
"3  c #6D6A0F",
"4  c #797402",
"5  c #7D780F",
"6  c #736E18",
"7  c #7B7713",
"8  c #404238",
"9  c #747226",
"0  c #161E42",
"q  c #172044",
"w  c #1A2444",
"e  c #1A2548",
"r  c #1B264B",
"t  c #1D294C",
"y  c #1B2651",
"u  c #1E2A53",
"i  c #1D2A59",
"p  c #242B44",
"a  c #262B46",
"s  c #222B4B",
"d  c #2D3244",
"f  c #2B334D",
"g  c #363B4A",
"h  c #222D53",
"j  c #212F5B",
"k  c #2B3455",
"l  c #2A3457",
"z  c #23325D",
"x  c #29365D",
"c  c #353D57",
"v  c #243463",
"b  c #2B3A65",
"n  c #28396A",
"m  c #343D63",
"M  c #2B3E71",
"N  c #3D4148",
"B  c #3E445B",
"V  c #3C4464",
"C  c #37426B",
"Z  c #2E4174",
"A  c #31447C",
"S  c #4B4D45",
"D  c #464A4A",
"F  c #54564B",
"G  c #464B55",
"H  c #4D525E",
"J  c #525554",
"K  c #595B57",
"L  c #625845",
"P  c #5F635F",
"I  c #77764C",
"U  c #676859",
"Y  c #79775A",
"T  c #444A63",
"R  c #4C536A",
"E  c #565B69",
"W  c #5D616A",
"Q  c #666865",
"!  c #6F7166",
"~  c #747564",
"^  c #797B6D",
"/  c #656A77",
"(  c #6D7173",
")  c #737676",
"_  c #827B04",
"`  c #827E1B",
"'  c #827528",
"]  c #817C36",
"[  c #7F816F",
"{  c #7D807C",
"}  c #8B8500",
"|  c #8E8900",
" . c #938D04",
".. c #999306",
"X. c #918C16",
"o. c #A49D00",
"O. c #A39D0A",
"+. c #A39A11",
"@. c #ABA400",
"#. c #B0A700",
"$. c #B5AE02",
"%. c #BBB200",
"&. c #BAB20C",
"*. c #B6AE16",
"=. c #928E24",
"-. c #84833B",
";. c #938931",
":. c #9D9A31",
">. c #BCB324",
",. c #AAA53E",
"<. c #B8B234",
"1. c #C4BB00",
"2. c #C1B920",
"3. c #CCC301",
"4. c #CBC400",
"5. c #D3CB00",
"6. c #D4CB00",
"7. c #DCD400",
"8. c #DFD900",
"9. c #DBD308",
"0. c #DFD715",
"q. c #E4DC01",
"w. c #E2DD0C",
"e. c #E3DD14",
"r. c #E7E001",
"t. c #EBE401",
"y. c #EFE801",
"u. c #EBE40C",
"i. c #F1EA01",
"p. c #F0E708",
"a. c #F2EC0C",
"s. c #EDE517",
"d. c #F2EA15",
"f. c #F4ED1B",
"g. c #D4CC2D",
"h. c #E4DD25",
"j. c #E2DC3C",
"k. c #ECE327",
"l. c #F3EC22",
"z. c #F5EE2B",
"x. c #F8F02B",
"c. c #EBE43E",
"v. c #F3ED34",
"b. c #F9F137",
"n. c #8F8D47",
"m. c #999859",
"M. c #B5B250",
"N. c #8C8D6D",
"B. c #98966B",
"V. c #8C8C72",
"C. c #8B8C7B",
"Z. c #979777",
"A. c #95967C",
"S. c #A09F79",
"D. c #AAAA67",
"F. c #A3A26C",
"G. c #A4A575",
"H. c #ACAC75",
"J. c #C1BE5E",
"K. c #C2BF75",
"L. c #CFCB52",
"P. c #E0D952",
"I. c #E8E44A",
"U. c #FDF544",
"Y. c #FCF54D",
"T. c #FEF84D",
"R. c #EDE85C",
"E. c #F1EC5B",
"W. c #FBF452",
"Q. c #FEF952",
"!. c #FDF65B",
"~. c #C9C56B",
"^. c #D1CF70",
"/. c #D2CB79",
"(. c #DBD874",
"). c #E2DE6F",
"_. c #EDE868",
"`. c #FFF963",
"'. c #F8F26E",
"]. c #FEFA6B",
"[. c #E7E274",
"{. c #FFFC78",
"}. c #2F4580",
"|. c #3A4E86",
" X c #7283A5",
".X c #898D8F",
"XX c #8F9181",
"oX c #989884",
"OX c #9CA099",
"+X c #A3A48A",
"@X c #AAAA8A",
"#X c #BBBB87",
"$X c #B4B48A",
"%X c #A9AB92",
"&X c #B7B895",
"*X c #BDBDA3",
"=X c #C4C485",
"-X c #CDCB83",
";X c #C8C78D",
":X c #D9D787",
">X c #C1C091",
",X c #E1DF89",
"<X c #F3EF86",
"1X c #FFFC83",
"2X c #FFFC8C",
"3X c #F1ED9B",
"4X c #FFFD96",
"5X c #D1D0AB",
"6X c #EDEAA6",
"7X c #FFFFA6",
"8X c #FFFEB1",
"9X c #A4B8D1",
/* pixels */
"w w & & & & z Z h M C  Xj.P.oXH - % & u h t h v Z Z u w & w * % ",
"@ & O O @ t A h 0 v V oXj.x.[.XXS a w w w t w * w i t w w * & & ",
"@ % o X O s z @ $ y T %Xc.p.Y.[.N.D l t r h t & * w u Z x % w w ",
"* @ X X . . s % + t E $Xh.t.v.`.[.V.H x u t v z t t t Z |.t u u ",
"h 0 . X @ $ w + . p P =Xe.y.d.'.{.:XC.D s t Z b h t h N B p * * ",
"r z r X . @ w $ . t ! -Xe.y.r.Y.2X`.:XC.H B B G F W ! [ [ [ N * ",
"r b h . $ 0 q @ + ; V.:Xw.y.y.l.4X1X!.:X+XC.oX@X#X;X(.[._.M.F w ",
"0 s 0 # w r $ + # N XX(.8.y.r.u.W.8X].!.3X6X<X'.!.Q.T.T.b.L.J * ",
"z h r 0 r y $ # r G @X(.r.y.r.r.z.{.8X'.!.!.U.U.T.Q.T.x.c.B.N t ",
"h h $ $ r 0 # 0 f K *X).r.y.t.r.s.U.2X7X7X2X{.1X{.Q.x.u.~.) c r ",
"# # 0 0 $ 0 r g K A.5XI.y.y.t.r.e.z.W.'.K.3X4X1XQ.x.p.c.@XE h $ ",
"0 0 # 0 s k R ^ $X,XW.f.i.y.r.8.w.s.b.j.Y K.W.b.l.y.u.^.9X|.y w ",
"r u 0 h T ( +X:XE.b.f.a.y.t.r...;.0.k.k.] Z.g.d.t.t.h.>X XZ i r ",
"y x V W oX-XR.x.d.d.a.t.t.r.r.5 oX>.u.f.+.> +.t.t.q.P.+XT i 0 r ",
"a H C./.R.l.a.y.y.q.r.r.r.8.r.@.L ' 7.q.4.> 6 t.t.e./.) m v i $ ",
"a ~ L.0.q.q.7.7.8.7.8.8.8.8.8.5.,   1.q.q.7 < q.q.k.=XQ b n v 0 ",
"f ! m.:...@.$.%.4.4.4.5.5.5.7.7.` = O.q.q.6.1.q.y.s././ m j j h ",
"w B ( A.B.-.3 4 } ..@.%.%.4.4.7.#., &.q.q.q.q.q.t.p._.C.m x u s ",
"@ t C R { +XG.-.2 1 4 | @.$.%.4.6.6.7.7.7.7.7.q.q.t.v.#XE s r $ ",
"# q v n B E .X&XG.-.2 1 4 ..%.4.1.6.6.6.6.3.6.7.q.q.d.(.^ ; * $ ",
"q q r y y i A / oX&XH.9 1 | @.%.3.6.6.3.3.3.1.3.6.7.q.c.H.J a * ",
"q @ q i i i b l B [ 5XD.2 } @.%.3.1.3.1.1.1.1.1.1.4.q.e.^.U d & ",
"$ # y v v i v q h R oX#X7 } @.%.1.3.3.1.1.o.o.o.#.1.4.7.c.B.D w ",
"@ @ y i y n }.u y N [ =X` | @.%.1.1.1.1.*.=._ 5 _ | @.1.9.J.K = ",
"+ + w y y u i y r t ! >X=.| @.$.1.1.%.>.K.$XF.m.n.' 7 X.$.g.Y : ",
"$ $ w u 0 $ 0 r t t P &X:.| @.$.%.%.2.K.Z.Q V.N.A.A.Z.m.n.,.I - ",
"& $ t x $ $ r y y r H %X,.| @.$.%.>.~.V.N ; ; ; N D F U U U 8 o ",
"$ $ t t + # 0 0 y y B OXD.| @.$.*.L.Z.S ; t t * * * o - - a - o ",
"$ q $ q 0 $ $ 0 u i C .XH. .@.$.M.Z.S - t t w & * & % % % w s % ",
". & q * 0 y 0 0 u i u ( D...#.<.G.K f t * t t t h s r r % o w o ",
"O q w v M i q 0 y i v / F.O.<.F.K d t z j t u t z x h w * * & o ",
"@ q y |.A y q y u v v R [ ,.F.U ; O & v Z u h h z Z u w * % % O "
};
