/* XPM */
static char *exit[] = {
/* columns rows colors chars-per-pixel */
"32 32 157 2 ",
"   c #0F121E",
".  c #21211F",
"X  c #131827",
"o  c #11162C",
"O  c #13192B",
"+  c #101632",
"@  c #141B34",
"#  c #1B1C36",
"$  c #151D3B",
"%  c #221E3B",
"&  c #17203A",
"*  c #19223D",
"=  c #212121",
"-  c #22202B",
";  c #242034",
":  c #242039",
">  c #161E42",
",  c #151D48",
"<  c #251F40",
"1  c #271F48",
"2  c #291E59",
"3  c #172045",
"4  c #192343",
"5  c #1E2947",
"6  c #1B264B",
"7  c #1D294D",
"8  c #1B2653",
"9  c #1E2A53",
"0  c #162158",
"q  c #1E2B5D",
"w  c #222644",
"e  c #232B4B",
"r  c #222C52",
"t  c #252C5C",
"y  c #2C2D59",
"u  c #302B56",
"i  c #392D57",
"p  c #302A58",
"a  c #243056",
"s  c #23325C",
"d  c #29375E",
"f  c #32315E",
"g  c #2B1D65",
"h  c #2C1D6C",
"j  c #2D1C76",
"k  c #142161",
"l  c #202E63",
"z  c #2C2F62",
"x  c #312F63",
"c  c #243364",
"v  c #273967",
"b  c #293967",
"n  c #3D3264",
"m  c #3A346D",
"M  c #33386A",
"N  c #3E3B6F",
"B  c #263970",
"V  c #2B3D70",
"C  c #2A3C7D",
"Z  c #3C3B74",
"A  c #40356A",
"S  c #453C73",
"D  c #4A3D75",
"F  c #423F79",
"G  c #4B3F7C",
"H  c #2E4171",
"J  c #2E4379",
"K  c #31467F",
"L  c #46447A",
"P  c #4D427E",
"I  c #2F1C83",
"U  c #2F1B8A",
"Y  c #301B8E",
"T  c #321B94",
"R  c #351B99",
"E  c #381C9D",
"W  c #3C1CA2",
"Q  c #431DAD",
"!  c #461DB0",
"~  c #491DB6",
"^  c #4D1DBB",
"/  c #364C85",
"(  c #384F8B",
")  c #454184",
"_  c #4B4184",
"`  c #444984",
"'  c #4E468A",
"]  c #4D4C8C",
"[  c #534584",
"{  c #594586",
"}  c #554E8F",
"|  c #5C498C",
" . c #4B4995",
".. c #514795",
"X. c #5D4C95",
"o. c #5F4F98",
"O. c #50519F",
"+. c #5F559F",
"@. c #654D93",
"#. c #644F99",
"$. c #684F99",
"%. c #63519C",
"&. c #69539E",
"*. c #6C56A5",
"=. c #6D5AAC",
"-. c #735AAC",
";. c #755DB2",
":. c #795EB3",
">. c #5268A6",
",. c #7760B4",
"<. c #7D60B5",
"1. c #7D63BC",
"2. c #4F1DC0",
"3. c #511EC1",
"4. c #5421C2",
"5. c #5927C1",
"6. c #5D2DC1",
"7. c #6132C1",
"8. c #6638C1",
"9. c #693DC2",
"0. c #6D41C2",
"q. c #7046C2",
"w. c #754CC2",
"e. c #7D56C1",
"r. c #7F58C2",
"t. c #7F66C3",
"y. c #8263BC",
"u. c #8159C5",
"i. c #845DC9",
"p. c #8567C2",
"a. c #8768C6",
"s. c #8961CE",
"d. c #8B6CCD",
"f. c #8D65D3",
"g. c #8F6ED0",
"h. c #9068D7",
"j. c #956DDD",
"k. c #8A72D7",
"l. c #9371D6",
"z. c #9473D9",
"x. c #9975DD",
"c. c #9C74E3",
"v. c #9E79E4",
"b. c #9F75E8",
"n. c #A17BE6",
"m. c #A076E9",
"M. c #A37CEB",
"N. c #A67CF0",
"B. c #A97FF3",
"V. c #8F81DF",
"C. c #A780EF",
"Z. c #A781F2",
"A. c #AA82F4",
"S. c #AE84F9",
"D. c #B186FC",
"F. c #B388FF",
"G. c #A090F0",
/* pixels */
"4 4 * * $ $ a ` | =.;.=.*.) M 9 & & & 5 r 7 r s v J 9 4 & 4 * & ",
"& & O O @ [ d.n.A.D.D.D.S.N.c.p.| u * 5 5 7 5 4 6 s 7 6 4 * & & ",
"O & X % :.Z.F.F.F.F.F.D.F.F.F.F.S.c.,.N 6 7 7 & * 4 9 H d & * 4 ",
"* @ # y.D.F.F.F.S.B.B.S.S.F.F.F.F.F.F.v.-.f v s 7 7 7 H / 5 9 9 ",
"7 $ &.D.F.F.N.h.i.u.u.i.f.j.m.S.F.F.F.F.F.z.+.v 9 6 6 4 s 6 4 4 ",
"6 M x.F.F.n.u.e.e.e.e.e.e.e.u.f.n.S.F.F.F.F.A.<.a 7 4 5 * & @ & ",
"7 } A.F.A.i.e.r.e.8.7.6.7.9.w.e.r.f.Z.F.F.F.F.D.d.L 3 $ > & & 4 ",
"* %.D.F.j.e.r.q.5.3.3.3.3.3.4.7.q.r.i.c.D.F.F.F.F.x.L $ $ & & $ ",
"t *.F.F.f.u.e.5.3.3.^ Q Q Q ^ 3.3.8.e.u.h.D.F.A.S.F.v.P 4 $ 4 e ",
"e &.F.D.i.e.q.3.3.! R T T R R E ^ ^ 4.q.u.h.D.A.y.l.F.v.P q 9 6 ",
"$ { S.S.s.u.9.3.^ R T U j h j Y R Q ^ 4.9.u.h.D.C.| *.C.v.) 9 $ ",
"3 A M.D.f.u.9.3.~ T T 2 = = = : g U W ^ ^ 0.e.h.F.x.m O.G.z.x 3 ",
"9 t z.D.j.e.0.3.~ T U - = = = . . 1 U R ^ 4.q.u.c.F.a.C >.t.;.9 ",
"7 q :.F.M.u.w.4.^ R j - = = = = . . < I E ~ 5.e.i.N.D.*.0 t %.[ ",
"> 8 ) Z.D.i.e.7.^ W Y % = = = . = = . 1 Y Q 3.7.e.f.D.n.Z c r n ",
"> > k g.F.c.u.9.3.! T 2 = = = = = . . = g R ~ 3.q.u.m.F.1.B c 3 ",
"8 , 0 ..A.A.s.e.5.^ W I ; . = = = = = . : Y W ^ 7.e.f.D.M.F t 9 ",
"S m 8 q t.F.b.r.q.4.~ R h - = = = = = = = j R ^ 3.w.u.M.F.;.9 e ",
"p -.' l Z c.S.h.e.8.3.Q T g = = = = . = = h T Q 3.9.u.h.F.z.r * ",
"$ G k.%.q X.S.A.s.e.7.3.Q T h % = . = . = j T Q 3.7.e.f.D.Z.D & ",
"> , $.M.:.z 1.S.N.i.w.6.2.! R I 2 % - % 2 Y T Q 3.6.e.i.A.D.&.* ",
"$ $ , :.S.z.o.a.D.M.u.e.7.3.~ W R Y j I Y Y R ^ 3.7.e.u.B.F.y.* ",
"$ $ r z t.D.A.d.n.F.M.i.e.8.4.^ Q E R R R E ! 3.3.9.e.u.A.F.y.: ",
"+ + 7 q r p.D.F.S.F.D.N.s.e.q.5.3.3.^ ~ ~ ^ ^ 3.5.w.e.a.S.F.a.O ",
"+ $ 3 9 9 t ;.B.F.F.F.F.A.h.u.e.9.6.3.3.3.3.3.5.w.e.e.h.F.F.<.X ",
"@ $ 3 8 $ $ > #.n.F.F.F.F.D.m.i.u.u.w.9.9.9.q.e.e.e.u.N.F.D.@.O ",
"$ $ e c + $ 6 6 G l.F.F.F.F.F.S.c.i.u.u.u.u.u.:.e.i.m.F.F.n.i   ",
"$ $ e 7 + $ > , 9 y -.C.F.F.F.F.F.D.N.j.f.i.s.f.c.B.D.F.D.-.* X ",
"$ $ $ $ > $ $ > 9 9 q  .V.Z.D.D.F.F.F.F.F.S.D.D.F.F.F.S.y.e e @ ",
"o 4 4 4 3 8 > > q 8 8 k k _ 1.v.D.F.F.F.F.F.F.F.F.S.C.-.w # * O ",
"o 3 3 c V 9 > > 8 8 t l l c t p | y.l.n.C.C.C.n.l.,.L 5 * * * X ",
"@ 3 6 ( K 9 3 8 8 c c l c B c 3 @ o w S ] P L L b b a * * & & O "
};
