/* XPM */
static char *ground[] = {
/* columns rows colors chars-per-pixel */
"32 32 76 1 ",
"  c #0F121E",
". c #0E1323",
"X c #0F132B",
"o c #111626",
"O c #131827",
"+ c #11162C",
"@ c #13192C",
"# c #111633",
"$ c #141B34",
"% c #111739",
"& c #151D3B",
"* c #181E39",
"= c #182036",
"- c #17203B",
"; c #19223D",
": c #161E42",
"> c #151D48",
", c #151F52",
"< c #172044",
"1 c #192344",
"2 c #1E2946",
"3 c #17214B",
"4 c #1A254B",
"5 c #1D294C",
"6 c #172153",
"7 c #1A2653",
"8 c #1D2A53",
"9 c #17225B",
"0 c #1A255C",
"q c #1E2B5B",
"w c #212B4C",
"e c #212D53",
"r c #202E5A",
"t c #243056",
"y c #23325D",
"u c #29375E",
"i c #2A385F",
"p c #142161",
"a c #182360",
"s c #1D2B62",
"d c #172669",
"f c #1F2E6E",
"g c #1B2B70",
"h c #1F307A",
"j c #202E62",
"k c #202F6C",
"l c #233363",
"z c #273967",
"x c #2A3A66",
"c c #23336A",
"v c #27396D",
"b c #2A3B6C",
"n c #233473",
"m c #263970",
"M c #2B3D71",
"N c #22337B",
"B c #283B7B",
"V c #2E4172",
"C c #2E437B",
"Z c #31467E",
"A c #2B3F83",
"S c #2E4384",
"D c #2F4589",
"F c #354B85",
"G c #31458B",
"H c #354C8B",
"J c #384D8D",
"K c #384F9A",
"L c #3A539D",
"P c #425CA0",
"I c #4B67A2",
"U c #5D7AB8",
"Y c #5F7FC3",
"T c #6081CA",
"R c #6C8FCA",
"E c #779BD5",
/* pixels */
"11;;;-yVemccclye*$=ee58yzCe1;1;=",
"==+@#5Ze:llcSnre$;1115212y552---",
"$=@o@wy$&e0BPs7>O;e82e5--48Vu-11",
"-$+++Xw=+4jqq,4:+-tt52ly555zF585",
"w:++$&1$X:74>471--<<15Vz8151r511",
"4r4#X%1$+:>4>>51$#-585r51515;-&=",
"wbe.&::%+$:e1*1w$#5ryrr&5z1-----",
":w1%14&#%w:1:&%$@$585vC522:-%:--",
"ee4:>e:%w4%&:*$#o#1588q51-<4:&-5",
"ew&:::%:w*#&&$+&$&28-%-:54888q85",
"%%::::>44&$&%%#+--5l%&44437ngcq-",
">:%:7ee>11$$&w1$--85%&<:55,DEA7<",
"we>>jj7>2:&&:4e&%<<34:&&88qBIB74",
"7rsj,jjree5w;*4&%4,,98>:8849,q44",
">,jAKhdrllr8441%#40HHq4&48rrql8$",
"::,LYAkkbMe411:%&7kTPd748ylyyvl<",
"4>7hhkcmmCr4>44<5700,7lMeblylyr8",
":70qssq98l884443<3%&:rGe1yy8lyew",
"%,jjqlq3<8qCz<43&<%%%rx&#255r52-",
"%<lcqqmz577VH8qr<-##++w$o1r4<&--",
"<<3449Cme484y8345-X+$&;O -2<--<;",
"-%<qqqy847484&><5y4XX#1#.=-;=-2;",
"&&8jyqy<5z4:><<45xt.$=;@.$-2===;",
"%%2q8mS854<:&<<&;2-@11&o@1=;=$@@",
"+%1878q74:<3<>:et51-12&o12@--=oO",
"$&1e&&<3838q8ss452&@-&@=2=.=$@ @",
";$8y&&34446kdcq:@@&&$-;-;-@@@OO ",
"-&55#%:<586ARD94-=@$112-;;@==2;O",
"$<<-<&%<8qqBUSp851$=551-;-$=$;w=",
"+-<<15:>8060ps385551;555we22=$;@",
"+11lV8<:88rrsc8&=;5ry882yue2;;;O",
"%<5HC7158lcllmz1&@-lV5eelV82;==@"
};
