/* XPM */
static char *wall[] = {
/* columns rows colors chars-per-pixel */
"32 32 144 2 ",
"   c #0F121E",
".  c #1F1917",
"X  c #231D1B",
"o  c #26201D",
"O  c #2A221E",
"+  c #0F1422",
"@  c #0F132B",
"#  c #111626",
"$  c #151927",
"%  c #11162C",
"&  c #13192B",
"*  c #101632",
"=  c #151C34",
"-  c #111739",
";  c #151D3B",
":  c #1A1F3C",
">  c #201E23",
",  c #1B2136",
"<  c #17203B",
"1  c #19223C",
"2  c #2C2522",
"3  c #2F2825",
"4  c #22212A",
"5  c #2B272E",
"6  c #2E292E",
"7  c #302721",
"8  c #332A25",
"9  c #392D26",
"0  c #342C29",
"q  c #3A2F29",
"w  c #3C312C",
"e  c #272736",
"r  c #2B2834",
"t  c #23253B",
"y  c #29293D",
"u  c #332D31",
"i  c #312D3C",
"p  c #3C3333",
"a  c #35313D",
"s  c #39323B",
"d  c #3F383D",
"f  c #42352D",
"g  c #48382D",
"h  c #413632",
"j  c #463831",
"k  c #4B3C33",
"l  c #433739",
"z  c #45393C",
"x  c #4B3E3B",
"c  c #503F34",
"v  c #4F413A",
"b  c #524136",
"n  c #584437",
"m  c #55433A",
"M  c #59463B",
"N  c #5D493E",
"B  c #624C3E",
"V  c #161F42",
"C  c #191F41",
"Z  c #172043",
"A  c #1A2343",
"S  c #1E2946",
"D  c #1C264A",
"F  c #1D294D",
"G  c #1C2751",
"H  c #1E2B53",
"J  c #1B275E",
"K  c #1E2C5C",
"L  c #252944",
"P  c #2B2C44",
"I  c #20254B",
"U  c #222B4B",
"Y  c #292D4C",
"T  c #2E3047",
"R  c #353243",
"E  c #3C3644",
"W  c #33324C",
"Q  c #212D52",
"!  c #2A2F51",
"~  c #222E5C",
"^  c #243056",
"/  c #24325C",
"(  c #2A345C",
")  c #3C3950",
"_  c #152161",
"`  c #243463",
"'  c #2E3461",
"]  c #273967",
"[  c #233369",
"{  c #2A376E",
"}  c #273A6F",
"|  c #2B3B6C",
" . c #2B3E71",
".. c #413840",
"X. c #423D4F",
"o. c #2E4172",
"O. c #2E4379",
"+. c #31467E",
"@. c #4E4143",
"#. c #4E444C",
"$. c #504341",
"%. c #584743",
"&. c #564943",
"*. c #5D4B43",
"=. c #52454A",
"-. c #5D4D49",
";. c #544956",
":. c #634E41",
">. c #604F48",
",. c #665145",
"<. c #6A5345",
"1. c #64524B",
"2. c #6C564A",
"3. c #6F594D",
"4. c #715747",
"5. c #735A4C",
"6. c #795E4D",
"7. c #675753",
"8. c #735D52",
"9. c #795F50",
"0. c #766156",
"q. c #7C6254",
"w. c #756158",
"e. c #7F675A",
"r. c #47557B",
"t. c #80624F",
"y. c #816554",
"u. c #846856",
"i. c #816758",
"p. c #846959",
"a. c #8B6D5B",
"s. c #8F705E",
"d. c #94735E",
"f. c #957562",
"g. c #987661",
"h. c #9C7A65",
"j. c #9E7D69",
"k. c #A17D67",
"l. c #A5826C",
"z. c #AD8770",
"x. c #B79178",
"c. c #2D4285",
"v. c #384F8B",
"b. c #505786",
/* pixels */
"A A Z 1 < < / o.~ } [ ` [ [ ` G : = < F ^ F H / ] O.H A 1 A 1 < ",
", < & & & H +.Q Z ` ` { c.} ~ Q = 1 A S L T L S S / F F S 1 < < ",
"= < # + & U / = t X.#.;.b.' Q T p R X.=.&.&.@.@.d a ^ o./ < 1 A ",
"; = & % @ # U 1 p *.M k %.7.-.$.>.&.*.M *.,.,.N m x T ] v.D F H ",
"G : @ @ = ; A r x >.M N 5.q.5.5.w.1.>.>.*.*.2.,.v j i A / D A A ",
"D ` D % @ - i x 8.5.%.4.<.2.9.p.p.w.1.v N 2.6.q.>.v u S 1 < = < ",
"F | Q @ ; L l 5.j.a.6.<.:.8.0.q.8.1.*.x N 5.6.y.q.>.v 5 < < < A ",
"A D V = I ..m 2.f.f.q.:.7.8.0.e.8.*.M j m 1.2.y.q.,.-.p e A ; ; ",
"Q Q D V R -.2.y.h.y.s.q.q.p.q.3.:.:.n f m -.3.i.3.,.M p z 1 < U ",
"Q Q V t @.8.8.p.a.f.x.f.q.y.f.p.,.:.g 8 M <.*.<.m ,.M p $./ H F ",
"= - V i %.q.d.f.s.k.l.f.8.p.k.d.6.<.h f B :.j c v M v w p ' K ; ",
"V V : x -.9.f.g.j.z.f.p.5.q.u.y.:.:.c k g f g k w v j w 2 ) Y Z ",
"G H ..:.:.t.y.y.j.z.u.:.*.4.5.M f j m k 9 f b c w j h 8 2 w E U ",
"G ( X.c N %.3.9.a.p.:.j j :.m f j k <.N k j k f g x k 8 2 9 k T ",
"V X.c :.c g m 3.%.k f 9 j b c b M ,.6.<.c b k c c c m h 7 9 x i ",
"V z :.4.c c k :.k w X X 2 M ,.:.b B M B m M m :.M k k g w q z L ",
"I 6 c :.c c k B n 9 7 X X f B B B B B c f :.M M :.f O O w j E G ",
"C i g c h j M 4.B f 9 7 o 7 n B t.6.6.M b B :.b k 2 X O 9 f W Q ",
"- P p j f 0 w :.B f 9 9 O 8 <.4.<.6.6.B N 6.5.B m 8 9 k b p a 1 ",
"- D ) M :.c f c B g 9 g g 8 k n M B B 2.<.:.B <.:.f f m N x y < ",
"V V P l :.:.k f c g c n b w j w 9 c m c c j f b M w f v v a A 1 ",
"V - I s k :.M j c c c B M m n g f f j f w j k f 0 f j w p e S 1 ",
"; ; G W f 2.5.m n n g B n n M b f 9 8 8 w b g 0 0 0 3 p e , < 1 ",
"* ; G ! j N <.n M B c g b w f w 8 9 7 2 8 8 2 8 3 o 2 e < = & & ",
"% = D G R q q l v m b j w 9 q w q 3 3 2 2 2 3 3 o o 4 , < , # # ",
"; ; V Q : u 2 8 0 h k j 0 3 3 0 7 3 0 0 7 8 w 3 o > $ = , # + & ",
": : F / ; ; L 5 8 3 w 0 w 3 o . o o 3 3 2 2 3 3 5 , & & & $ #   ",
"; ; F D * ; V C U T y 5 O o o o o o X 2 3 0 0 5 , 1 = = = S 1 $ ",
"; V ; V V ; ; V H K J } r.Y 5 2 3 3 3 0 u u e 1 1 < = < < 1 Q = ",
"% C A C V F V V H J G J _ K D S y y y T 1 S S S Q Q S S , & 1 & ",
"% A V `  .K V V G H K K K [ H V < 1 F ^ / H H S / ] Q S 1 1 1 & ",
"= Z F v.+.G V G G [ ] K [ o.] A = & < ] o.H Q Q ] ] Q 1 1 < , & "
};
